<svg xmlns="http://www.w3.org/2000/svg" version="1.1" xmlns:xlink="http://www.w3.org/1999/xlink" xmlns:svgjs="http://svgjs.dev/svgjs" width="1000" height="1000" viewBox="0 0 1000 1000"><rect width="1000" height="1000" fill="#181818"></rect><g transform="matrix(0.7,0,0,0.7,150.13574530193586,199.2437265931515)"><svg viewBox="0 0 287 247" data-background-color="#181818" preserveAspectRatio="xMidYMid meet" height="860" width="1000" xmlns="http://www.w3.org/2000/svg" xmlns:xlink="http://www.w3.org/1999/xlink"><g id="tight-bounds" transform="matrix(1,0,0,1,-0.05565557379370034,-0.09999981196958174)"><svg viewBox="0 0 287.1112447377972 247.2" height="247.2" width="287.1112447377972"><g><svg viewBox="0 0 287.1112447377972 247.2" height="247.2" width="287.1112447377972"><g><svg viewBox="0 0 287.1112447377972 247.2" height="247.2" width="287.1112447377972"><g><svg viewBox="0 0 395.52 340.538887946692" height="247.2" width="287.1112447377972"><g transform="matrix(1,0,0,1,0,251.2529554442402)"><svg viewBox="0 0 395.52 89.2859325024518" height="89.2859325024518" width="395.52"><g><svg viewBox="0 0 395.52 89.2859325024518" height="89.2859325024518" width="395.52"><g><svg viewBox="0 0 395.52 65.90271950655358" height="65.90271950655358" width="395.52"><g transform="matrix(1,0,0,1,0,0)"><svg width="395.52" viewBox="258.739990234375 -38.15999984741211 506.639892578125 80.91000366210938" height="65.90271950655358" data-palette-color="#ffffff"><svg></svg><svg></svg><g class="undefined-text-0" data-fill-palette-color="primary" id="text-0"><path xmlns="http://www.w3.org/2000/svg" d="M459.95 0v-31.37h-14.09v-6.79h35.92v6.79h-14.09v31.37zM490 0v-38.16h7.74v9.96h23.73v-9.96h7.77v38.16h-7.77v-21.58h-23.73v21.58zM540.08 0v-38.16h32.49v6.79h-24.75v7.62h21.92v6.37h-21.92v10.62h25.26v6.76z" fill="#ffffff" fill-rule="nonzero" stroke="none" stroke-width="1" stroke-linecap="butt" stroke-linejoin="miter" stroke-miterlimit="10" stroke-dasharray="" stroke-dashoffset="0" font-family="none" font-weight="none" font-size="none" text-anchor="none" style="mix-blend-mode: normal" data-fill-palette-color="primary" opacity="1"></path><path xmlns="http://www.w3.org/2000/svg" d="M258.74 42.21v-38.16h32.5v6.79h-24.76v7.62h21.92v6.37h-21.92v10.62h25.27v6.76zM295.31 42.21l15.87-19.38-14.67-18.78h9.47l10.13 13.14 10.18-13.14h9.33l-14.94 18.7 15.45 19.46h-9.49l-10.87-13.72-11.11 13.72zM353.44 42.21v-31.37h-14.08v-6.79h35.91v6.79h-14.09v31.37zM383.52 42.21v-38.16h32.5v6.79h-24.76v7.62h21.92v6.37h-21.92v10.62h25.27v6.76zM425.12 42.21v-38.16h19.41c2.933 0 5.473 0.307 7.62 0.92 2.147 0.607 3.927 1.49 5.34 2.65 1.42 1.153 2.477 2.56 3.17 4.22 0.687 1.66 1.03 3.54 1.03 5.64v0c0 1.413-0.17 2.76-0.51 4.04-0.34 1.28-0.863 2.457-1.57 3.53-0.713 1.073-1.607 2.03-2.68 2.87-1.073 0.833-2.333 1.527-3.78 2.08v0l8.3 12.21h-9.47l-7.18-10.84h-0.22l-11.72-0.02v10.86zM432.86 24.66h11.87c1.46 0 2.74-0.173 3.84-0.52 1.1-0.34 2.02-0.82 2.76-1.44 0.74-0.613 1.293-1.367 1.66-2.26 0.367-0.887 0.55-1.873 0.55-2.96v0c0-2.133-0.733-3.783-2.2-4.95-1.46-1.16-3.663-1.74-6.61-1.74v0h-11.87zM470.87 42.21v-38.16h7.74l13.87 13.92 13.87-13.92h7.74v38.16h-7.74v-27.44l-13.87 13.35-13.87-13.35v27.44zM523.97 42.21v-38.16h7.79v38.16zM541.58 42.21v-38.16h7.74l23.78 12.45v-12.45h7.73v38.16h-7.73v-17.5l-23.78-12.38v29.88zM586.72 42.21l17.92-38.16h8.2l18.46 38.16h-8.13l-3.05-6.42h-22.29l-2.96 6.42zM600.78 29.42h16.29l-8.26-17.34zM648.73 42.21v-31.37h-14.09v-6.79h35.92v6.79h-14.09v31.37zM676.56 23.02v0c0-2.88 0.53-5.517 1.59-7.91 1.06-2.393 2.543-4.447 4.45-6.16 1.913-1.72 4.21-3.053 6.89-4 2.68-0.94 5.647-1.41 8.9-1.41v0c3.24 0 6.203 0.47 8.89 1.41 2.68 0.947 4.977 2.28 6.89 4 1.913 1.713 3.4 3.767 4.46 6.16 1.053 2.393 1.58 5.03 1.58 7.91v0c0 2.9-0.527 5.557-1.58 7.97-1.06 2.42-2.547 4.5-4.46 6.24-1.913 1.74-4.21 3.093-6.89 4.06-2.687 0.973-5.65 1.46-8.89 1.46v0c-3.253 0-6.22-0.487-8.9-1.46-2.68-0.967-4.977-2.32-6.89-4.06-1.907-1.74-3.39-3.82-4.45-6.24-1.06-2.413-1.59-5.07-1.59-7.97zM684.3 23.02v0c0 1.967 0.353 3.74 1.06 5.32 0.713 1.58 1.7 2.927 2.96 4.04 1.26 1.12 2.75 1.98 4.47 2.58 1.713 0.6 3.58 0.9 5.6 0.9v0c2.02 0 3.887-0.3 5.6-0.9 1.72-0.6 3.207-1.46 4.46-2.58 1.253-1.113 2.237-2.46 2.95-4.04 0.72-1.58 1.08-3.353 1.08-5.32v0c0-1.967-0.36-3.733-1.08-5.3-0.713-1.56-1.697-2.88-2.95-3.96-1.253-1.087-2.74-1.913-4.46-2.48-1.713-0.573-3.58-0.86-5.6-0.86v0c-2.02 0-3.887 0.287-5.6 0.86-1.72 0.567-3.21 1.393-4.47 2.48-1.26 1.08-2.247 2.4-2.96 3.96-0.707 1.567-1.06 3.333-1.06 5.3zM728.81 42.21v-38.16h19.41c2.927 0 5.463 0.307 7.61 0.92 2.153 0.607 3.937 1.49 5.35 2.65 1.42 1.153 2.473 2.56 3.16 4.22 0.693 1.66 1.04 3.54 1.04 5.64v0c0 1.413-0.17 2.76-0.51 4.04-0.34 1.28-0.867 2.457-1.58 3.53-0.707 1.073-1.597 2.03-2.67 2.87-1.073 0.833-2.333 1.527-3.78 2.08v0l8.3 12.21h-9.48l-7.17-10.84h-0.22l-11.72-0.02v10.86zM736.55 24.66h11.86c1.467 0 2.75-0.173 3.85-0.52 1.1-0.34 2.02-0.82 2.76-1.44 0.74-0.613 1.293-1.367 1.66-2.26 0.367-0.887 0.55-1.873 0.55-2.96v0c0-2.133-0.733-3.783-2.2-4.95-1.467-1.16-3.673-1.74-6.62-1.74v0h-11.86z" fill="#ffffff" fill-rule="nonzero" stroke="none" stroke-width="1" stroke-linecap="butt" stroke-linejoin="miter" stroke-miterlimit="10" stroke-dasharray="" stroke-dashoffset="0" font-family="none" font-weight="none" font-size="none" text-anchor="none" style="mix-blend-mode: normal" data-fill-palette-color="primary" opacity="1"></path></g></svg></g></svg></g><g transform="matrix(1,0,0,1,0,70.36935751401695)"><svg viewBox="0 0 395.52 18.916574988434846" height="18.916574988434846" width="395.52"><g transform="matrix(1,0,0,1,0,0)"><svg width="395.52" viewBox="3.3499999046325684 -34.900001525878906 742.260009765625 35.5" height="18.916574988434846" data-palette-color="#f11010"><path d="M3.35 0L3.35-34.3 23-34.3Q25.7-34.3 27.9-33.23 30.1-32.15 31.35-30.23 32.6-28.3 32.6-25.8L32.6-25.8Q32.6-22.95 31.03-20.88 29.45-18.8 27-18L27-18 27-17.8Q29.9-17.25 31.73-14.98 33.55-12.7 33.55-9.6L33.55-9.6Q33.55-4.95 30.58-2.48 27.6 0 23 0L23 0 3.35 0ZM10.65-20.6L20.95-20.6Q22.95-20.6 24.05-21.63 25.15-22.65 25.15-24.25L25.15-24.25Q25.15-26.15 24.13-27.15 23.1-28.15 21.3-28.15L21.3-28.15 10.65-28.15 10.65-20.6ZM10.65-6.15L21.8-6.15Q23.7-6.15 24.9-7.25 26.1-8.35 26.1-10.4L26.1-10.4Q26.1-12.25 24.9-13.4 23.7-14.55 21.4-14.55L21.4-14.55 10.65-14.55 10.65-6.15ZM91.92 0.6Q84.97 0.6 81.12-2.8 77.27-6.2 77.27-12.75L77.27-12.75 77.27-34.3 84.52-34.3 84.52-13.1Q84.52-9.4 86.45-7.48 88.37-5.55 91.92-5.55L91.92-5.55Q95.47-5.55 97.45-7.48 99.42-9.4 99.42-13.1L99.42-13.1 99.42-34.3 106.67-34.3 106.67-12.75Q106.67-6.2 102.8-2.8 98.92 0.6 91.92 0.6L91.92 0.6ZM166.54 0.6Q158.59 0.6 154.27-3.75 149.94-8.1 149.94-17.15L149.94-17.15Q149.94-26 154.54-30.45 159.14-34.9 167.54-34.9L167.54-34.9Q171.99-34.9 175.67-33.52 179.34-32.15 181.52-29.38 183.69-26.6 183.69-22.6L183.69-22.6 176.19-22.6Q176.19-25.4 173.72-27.08 171.24-28.75 167.79-28.75L167.79-28.75Q162.54-28.75 159.97-25.95 157.39-23.15 157.39-17.9L157.39-17.9 157.39-16.4Q157.39-10.9 159.77-8.22 162.14-5.55 167.04-5.55L167.04-5.55Q171.09-5.55 173.74-7.48 176.39-9.4 176.44-12.7L176.44-12.7 166.04-12.7 166.04-18.65 183.69-18.65 183.69 0 178.69 0 178.04-3.8Q175.64-1.5 172.99-0.45 170.34 0.6 166.54 0.6L166.54 0.6ZM287.93 0L287.93-28.05 277.33-28.05 277.33-34.3 305.78-34.3 305.78-28.05 295.18-28.05 295.18 0 287.93 0ZM348 0L348-34.3 366.2-34.3Q371.95-34.3 374.85-31.48 377.75-28.65 377.75-23.55L377.75-23.55Q377.75-16.35 371.75-13.95L371.75-13.95 378.75 0 370.9 0 364.85-12.8 355.25-12.8 355.25 0 348 0ZM355.25-18.85L365.55-18.85Q367.9-18.85 369.15-20.1 370.4-21.35 370.4-23.55L370.4-23.55Q370.4-25.75 369.15-26.95 367.9-28.15 365.55-28.15L365.55-28.15 355.25-28.15 355.25-18.85ZM418.67 0L432.07-34.3 441.17-34.3 454.57 0 446.67 0 444.22-6.55 428.62-6.55 426.17 0 418.67 0ZM430.87-12.6L441.92-12.6 438.67-21.3Q438.07-22.9 436.52-28.05L436.52-28.05 436.27-28.05Q434.72-22.9 434.12-21.3L434.12-21.3 430.87-12.6ZM511.19 0.6Q494.59 0.6 494.59-17.15L494.59-17.15Q494.59-26.05 498.94-30.48 503.29-34.9 511.19-34.9L511.19-34.9Q515.54-34.9 519.02-33.43 522.49-31.95 524.52-28.93 526.54-25.9 526.54-21.55L526.54-21.55 519.09-21.55Q519.09-24.9 516.94-26.83 514.79-28.75 511.34-28.75L511.34-28.75Q506.64-28.75 504.34-25.95 502.04-23.15 502.04-17.9L502.04-17.9 502.04-16.4Q502.04-5.55 511.34-5.55L511.34-5.55Q514.99-5.55 517.17-7.45 519.34-9.35 519.34-12.7L519.34-12.7 526.54-12.7Q526.54-8.3 524.54-5.33 522.54-2.35 519.09-0.88 515.64 0.6 511.19 0.6L511.19 0.6ZM569.77 0L569.77-34.3 577.02-34.3 577.02-17.75 592.87-34.3 601.67-34.3 588.27-20.35 601.87 0 593.27 0 583.42-15.25 577.02-9.95 577.02 0 569.77 0ZM643.69 0L643.69-34.3 670.64-34.3 670.64-28.15 650.94-28.15 650.94-20.6 668.44-20.6 668.44-14.45 650.94-14.45 650.94-6.15 670.94-6.15 670.94 0 643.69 0ZM714.86 0L714.86-34.3 733.06-34.3Q738.81-34.3 741.71-31.48 744.61-28.65 744.61-23.55L744.61-23.55Q744.61-16.35 738.61-13.95L738.61-13.95 745.61 0 737.76 0 731.71-12.8 722.11-12.8 722.11 0 714.86 0ZM722.11-18.85L732.41-18.85Q734.76-18.85 736.01-20.1 737.26-21.35 737.26-23.55L737.26-23.55Q737.26-25.75 736.01-26.95 734.76-28.15 732.41-28.15L732.41-28.15 722.11-28.15 722.11-18.85Z" opacity="1" transform="matrix(1,0,0,1,0,0)" fill="#f11010" class="undefined-text-1" data-fill-palette-color="secondary" id="text-1"></path></svg></g></svg></g></svg></g></svg></g><g transform="matrix(1,0,0,1,124.61998490607793,0)"><svg viewBox="0 0 146.28003018784412 246.7863174367768" height="246.7863174367768" width="146.28003018784412"><g><svg xmlns="http://www.w3.org/2000/svg" xmlns:xlink="http://www.w3.org/1999/xlink" version="1.1" x="0" y="0" viewBox="20.658536911010742 0.4868755340576172 58.688133239746094 99.01165771484375" enable-background="new 0 0 100 100" xml:space="preserve" height="246.7863174367768" width="146.28003018784412" class="icon-icon-0" data-fill-palette-color="accent" id="icon-0"><g fill="#bebebe" data-fill-palette-color="accent"><g fill="#bebebe" data-fill-palette-color="accent"><path d="M53.342 88.18c0 3.146-0.33 4.627-3.342 4.627-3.208 0-3.344-1.418-3.344-4.627 0-1.332-2-1.332-2 0 0 2.797 0 6.627 5.344 6.627 5.342 0 5.342-4.312 5.342-6.627C55.342 86.834 53.342 86.834 53.342 88.18zM78.622 41.579c-0.537-2.504-0.81-5.088-0.81-7.681V21.875c0-28.517-55.624-28.518-55.624 0v12.023c0 2.588-0.272 5.172-0.807 7.669-0.985 4.335-1.807 13.026 3.545 21.789l0.611 9.938c0.453 2.755 2.069 6.894 3.599 9.22l5.82 8.986c7.261 10.749 22.928 10.592 30.109-0.036l5.793-8.946c1.531-2.33 3.147-6.468 3.613-9.318l0.6-9.848C79.293 56.436 80.195 48.502 78.622 41.579zM75.199 17.295C66.123 1.632 33.725 1.902 24.802 17.296 30.156-2.436 69.848-2.421 75.199 17.295zM24.189 27.023c0-18.39 25.395-23.638 41.679-15.741v4.011c0 1.336 2 1.336 2 0V12.43c0.905 0.585 1.75 1.241 2.519 1.968v4.193c0 1.351 2 1.351 2 0v-1.933c2.186 2.941 3.426 6.546 3.426 10.365v3.123c-8.176-0.92-12.524 2.074-18.238 3.689-4.904 1.691-10.234 1.692-15.146 0-5.428-1.534-10.067-4.61-18.237-3.69v-3.122H24.189zM72.49 72.971c-0.41 2.48-1.922 6.352-3.307 8.455l-5.8 8.956c-6.175 9.142-20.124 9.839-26.772-0.005l-5.799-8.957c-1.381-2.1-2.893-5.969-3.29-8.354l-0.537-7.998c0.317 0.096 0.649 0.149 0.992 0.149h0.714l2.185 9.339c0.103 0.44 0.484 0.735 0.914 0.762l2.151 9.193c0.296 1.264 2.261 0.885 1.947-0.455l-2.862-12.231 3.949-3.793c0.948-0.912-0.437-2.354-1.386-1.443l-3.093 2.972-1.016-4.342 4.058 0.002c0.497 0 1.007-0.386 1.007-1 0-0.064 0.005-0.131 0.013-0.191 0.251-2.008 3.073-1.459 2.825 0.38l-0.836 6.226c-0.118 0.883 0.176 1.746 0.751 2.374V74.9l-1.376-1.393c0.089 0.069-0.823-0.813-1.914-0.049l-1.035 0.723c-1.108 0.774 0.036 2.414 1.144 1.642l0.611-0.427c0.007 0.049 0.244 3.621 0.244 3.621 0.019 0.273 0.173 0.522 0.29 0.641l2.62 2.625c1.634 1.637 4.799 2.919 7.207 2.919h5.82c2.408 0 5.574-1.282 7.206-2.919l2.618-2.625c0.109-0.11 0.271-0.366 0.289-0.641 0 0 0.238-3.572 0.244-3.621l0.61 0.427c1.114 0.776 2.261-0.862 1.146-1.642l-1.035-0.723c-1.135-0.764-1.883 0.047-1.901 0.063-0.002-0.002-1.387 1.377-1.387 1.377v-1.893c0.575-0.63 0.868-1.49 0.751-2.372l-0.836-6.226c-0.25-1.866 2.576-2.236 2.824-0.381 0.008 0.064 0.014 0.129 0.014 0.191 0 0.565 0.424 0.95 1.007 1l4.06-0.001-1.018 4.343-3.095-2.973c-0.953-0.916-2.339 0.526-1.386 1.443l3.951 3.793-2.863 12.232c-0.317 1.356 1.648 1.736 1.947 0.455l2.151-9.193c0.431-0.026 0.812-0.322 0.914-0.764l2.185-9.338h0.715c0.344 0 0.676-0.055 0.992-0.15L72.49 72.971zM39.3 77.746v1.119l-0.354-0.356-0.079-1.196L39.3 77.746zM42.21 79.953v1.635c-0.343-0.229-0.659-0.468-0.91-0.719v-1.434C41.589 79.618 41.893 79.792 42.21 79.953zM41.3 76.92v-2.721c0.3 0.131 0.604 0.25 0.91 0.365v3.074C41.868 77.41 41.551 77.171 41.3 76.92zM45.121 81.009v1.882c-0.305-0.084-0.608-0.182-0.91-0.295v-1.83C44.514 80.859 44.819 80.939 45.121 81.009zM44.21 78.646v-3.432c0.302 0.083 0.604 0.162 0.91 0.23v3.494C44.816 78.857 44.512 78.76 44.21 78.646zM49 81.25v1.949h-1.88V81.25H49zM47.121 79.25v-3.445c0.622 0.082 1.249 0.139 1.88 0.166v3.279H47.121zM52.88 81.25v1.949H51V81.25H52.88zM51 79.25v-3.279c0.631-0.027 1.257-0.084 1.88-0.166v3.445H51zM55.791 80.766v1.83c-0.303 0.113-0.605 0.211-0.91 0.295v-1.882C55.184 80.939 55.486 80.859 55.791 80.766zM54.88 78.941v-3.493c0.306-0.07 0.608-0.149 0.91-0.232v3.431C55.488 78.76 55.186 78.857 54.88 78.941zM58.701 79.438v1.432c-0.25 0.251-0.566 0.49-0.91 0.719v-1.633C58.107 79.792 58.412 79.619 58.701 79.438zM57.791 77.639v-3.072c0.307-0.116 0.611-0.235 0.91-0.366v2.72C58.451 77.17 58.134 77.409 57.791 77.639zM60.701 78.863v-1.118l0.432-0.433-0.078 1.195L60.701 78.863zM73.241 62.531c-0.263 0.43-0.718 0.687-1.218 0.687h-6.721c-0.477-1.558-2.043-2.62-3.73-2.395-1.871 0.251-3.189 1.978-2.938 3.85l0.837 6.226c0.053 0.398-0.152 0.787-0.519 0.971-5.433 2.789-12.462 2.793-17.912-0.004-0.357-0.18-0.562-0.567-0.508-0.967l0.836-6.226c0.27-2.021-1.207-3.618-2.939-3.85-1.391-0.185-3.17 0.565-3.731 2.395h-6.719c-0.502 0-0.958-0.257-1.225-0.696-4.821-7.742-4.415-15.438-3.579-19.71 1.176 5.365 1.932 8.515 4.744 9.63 4.545 1.789 9.589 1.734 13.982 0.022 4.34-1.646 4.234-8.163-0.617-9.307l-10.441-2.46c-1.442-0.34-4.195-0.086-5.5 2.629-0.784-3.237-1.153-6.282-1.153-9.427v-1.737c7.375-0.905 10.571 1.579 17.587 3.565 5.225 1.801 10.991 1.882 16.448 0 6.555-1.855 10.133-4.48 17.588-3.565v1.737c0 3.144-0.369 6.188-1.152 9.426-1.28-2.66-4.016-2.977-5.501-2.627l-10.44 2.46c-4.917 1.159-4.884 7.693-0.627 9.303 4.316 1.684 9.35 1.809 13.994-0.02 2.652-1.053 3.477-3.855 4.741-9.633C77.85 48.038 77.66 55.43 73.241 62.531zM36.284 51.213c2.691 0 4.88-2.189 4.88-4.88 0-0.399-0.065-0.788-0.159-1.168 2.656 0.817 2.715 4.47 0.179 5.433-3.994 1.555-8.551 1.551-12.53-0.017-1.423-0.565-1.812-1.94-1.812-2.674v-2.46c0-2.168 2.054-3.153 3.541-2.804l2.21 0.521c-0.743 0.868-1.189 1.981-1.189 3.169C31.404 49.024 33.593 51.213 36.284 51.213zM33.404 46.333c0-1.112 0.652-2.117 1.641-2.592l3.496 0.824c0.396 0.505 0.623 1.119 0.623 1.768 0 1.588-1.292 2.88-2.88 2.88C34.696 49.213 33.404 47.921 33.404 46.333zM63.717 51.213c2.69 0 4.881-2.189 4.881-4.88 0-1.188-0.447-2.302-1.19-3.169l2.21-0.521c1.936-0.454 3.541 1.065 3.541 2.803v2.462c0 1.169-0.743 2.249-1.809 2.671-3.986 1.567-8.533 1.575-12.541 0.013-2.621-0.992-2.371-4.641 0.187-5.428-0.095 0.38-0.158 0.768-0.158 1.167C58.836 49.024 61.025 51.213 63.717 51.213zM60.836 46.333c0-0.649 0.227-1.264 0.623-1.768l3.496-0.824c0.988 0.475 1.643 1.48 1.643 2.592 0 1.588-1.293 2.88-2.881 2.88C62.128 49.213 60.836 47.921 60.836 46.333zM41.914 31.547c5.213 1.763 10.813 1.797 16.105 0.022 0.347-0.028 0.707-0.248 0.855-0.642 2.195-5.779 2.167-11.041 1.717-14.579-0.166-1.312-2.15-1.06-1.984 0.252 0.424 3.327 0.416 8.021-1.426 13.139-0.074 0.024-0.152 0.041-0.228 0.064v-5.174c0-1.329-2-1.329-2 0v5.7c-3.265 0.713-6.643 0.713-9.909 0v-5.7c0-1.345-2-1.345-2 0v5.174c-0.075-0.023-0.152-0.039-0.227-0.063-1.853-5.151-1.846-9.853-1.426-13.139 0.168-1.311-1.817-1.564-1.984-0.254-0.484 3.778-0.411 8.985 1.716 14.58C41.256 31.272 41.608 31.499 41.914 31.547zM49.167 53.486l-0.083-7.366h1.751v7.366c0 1.352 2 1.352 2 0v-7.396c0-1.086-0.86-1.97-1.917-1.97h-1.834c-1.058 0-1.917 0.884-1.917 1.97v7.396C47.167 54.839 49.167 54.839 49.167 53.486zM35.097 55.285l-3 0.97c-1.232 0.397-0.696 2.312 0.615 1.902l3-0.97C36.994 56.773 36.38 54.869 35.097 55.285zM55.111 56.499c-0.133-0.271-0.223-0.851-0.178-1.153l0.285-2.055c0.182-1.309-1.801-1.583-1.98-0.275l-0.284 2.045c-0.104 0.703 0.049 1.679 0.362 2.319l2.494 5.076c0.355 0.726 0.205 1.59-0.361 2.14-1.237 1.148-2.79 1.86-4.448 2.067v-7.72c0-1.342-2.001-1.342-2.001 0v7.72c-1.657-0.206-3.208-0.916-4.434-2.056-0.581-0.563-0.732-1.426-0.376-2.151l2.493-5.075c0.313-0.637 0.468-1.611 0.365-2.313l-0.286-2.053c-0.182-1.309-2.163-1.031-1.98 0.274l0.287 2.06c0.043 0.301-0.047 0.879-0.18 1.148l-2.493 5.074c-0.742 1.507-0.429 3.305 0.794 4.486 3.857 3.584 9.803 3.549 13.635-0.015 1.208-1.168 1.521-2.966 0.78-4.474L55.111 56.499zM67.904 56.255l-3-0.97c-1.282-0.416-1.896 1.488-0.615 1.902l3.001 0.97C68.6 58.564 69.137 56.652 67.904 56.255z" fill="#bebebe" data-fill-palette-color="accent"></path></g></g></svg></g></svg></g><g></g></svg></g></svg></g></svg></g><defs></defs></svg><rect width="287.1112447377972" height="247.2" fill="none" stroke="none" visibility="hidden"></rect></g></svg></g></svg>