<svg xmlns="http://www.w3.org/2000/svg" version="1.1" xmlns:xlink="http://www.w3.org/1999/xlink" xmlns:svgjs="http://svgjs.com/svgjs" width="500" height="500"><svg xmlns="http://www.w3.org/2000/svg" xmlns:xlink="http://www.w3.org/1999/xlink" width="500" zoomAndPan="magnify" viewBox="0 0 375 374.999991" height="500" preserveAspectRatio="xMidYMid meet" version="1.0"><path fill="#9e8638" d="M 178.003906 10.027344 L 178.003906 187.703125 L 178.019531 187.703125 C 178.25 224.789062 201.289062 257.136719 247.171875 257.136719 C 266.511719 257.136719 282.535156 251.074219 293.671875 241.304688 L 310.863281 257.722656 L 317.503906 250.886719 L 300.117188 234.085938 C 310.667969 221.191406 316.132812 204 316.132812 187.390625 C 316.328125 150.078125 293.273438 117.253906 247.171875 117.253906 C 226.085938 117.253906 209.835938 124.207031 198.394531 135.25 L 198.394531 152.011719 C 208.578125 136.859375 225.84375 127.226562 247.171875 127.226562 C 286.242188 127.226562 305.78125 155.160156 305.78125 187.398438 C 305.78125 218.851562 286.242188 247.179688 247.171875 247.179688 C 208.121094 247.179688 188.59375 219.519531 188.375 187.710938 L 188.195312 187.710938 L 188.195312 9.785156 C 188.226562 9.785156 188.257812 9.785156 188.289062 9.785156 L 188.289062 0.0234375 C 188.023438 0.0234375 187.757812 0 187.492188 0 C 84.109375 0 0 84.109375 0 187.492188 C 0 235.371094 18.066406 279.101562 47.707031 312.269531 L 47.707031 297.042969 C 23.96875 266.832031 9.769531 228.800781 9.769531 187.484375 C 9.769531 92.675781 84.402344 14.976562 178.003906 10.027344 Z M 178.003906 10.027344 " fill-opacity="1" fill-rule="nonzero"></path><path fill="#9e8638" d="M 198.058594 0.3125 L 198.058594 10.105469 C 291.15625 15.59375 365.214844 93.035156 365.214844 187.484375 C 365.214844 285.476562 285.492188 365.207031 187.492188 365.207031 C 141.523438 365.207031 99.605469 347.636719 68.023438 318.886719 L 68.023438 128.78125 L 117.644531 128.78125 C 140.308594 128.78125 151.25 145.386719 151.054688 161.410156 C 150.859375 180.554688 140.308594 194.039062 116.472656 194.039062 L 96.28125 194.039062 L 105.3125 204 L 105.335938 204 L 152.621094 255.773438 L 166.492188 255.773438 L 118.242188 203.414062 C 148.128906 203.414062 162.785156 183.878906 162.589844 161.605469 C 162.394531 140.308594 147.347656 119.015625 117.652344 119.015625 C 97.53125 119.015625 77.605469 119.015625 57.480469 119.015625 L 57.480469 322.398438 C 91.21875 354.925781 137.042969 374.992188 187.5 374.992188 C 290.882812 374.992188 374.992188 290.882812 374.992188 187.5 C 374.984375 87.652344 296.542969 5.820312 198.058594 0.3125 Z M 198.058594 0.3125 " fill-opacity="1" fill-rule="nonzero"></path></svg><style>@media (prefers-color-scheme: light) { :root { filter: contrast(1) brightness(1); } }
</style></svg>