<svg xmlns="http://www.w3.org/2000/svg" version="1.1" xmlns:xlink="http://www.w3.org/1999/xlink" xmlns:svgjs="http://svgjs.com/svgjs" width="1000" height="1000"><rect width="1000" height="1000" rx="350" ry="350" fill="#1f1e1e"></rect><g transform="matrix(1.6,0,0,1.6,100,100)"><svg xmlns="http://www.w3.org/2000/svg" version="1.1" xmlns:xlink="http://www.w3.org/1999/xlink" xmlns:svgjs="http://svgjs.com/svgjs" width="500" height="500"><svg xmlns="http://www.w3.org/2000/svg" xmlns:xlink="http://www.w3.org/1999/xlink" width="500" zoomAndPan="magnify" viewBox="0 0 375 374.999991" height="500" preserveAspectRatio="xMidYMid meet" version="1.0"><defs><g></g></defs><rect x="-37.5" width="450" fill="#ffffff" y="-37.499999" height="449.999989" fill-opacity="1"></rect><rect x="-37.5" width="450" fill="#ffffff" y="-37.499999" height="449.999989" fill-opacity="1"></rect><rect x="-37.5" width="450" fill="#212121" y="-37.499999" height="449.999989" fill-opacity="1"></rect><path fill="#deeefb" d="M 187.5 0 C 83.90625 0 0 83.90625 0 187.5 C 0 291.09375 83.90625 375 187.5 375 C 291.09375 375 375 291.09375 375 187.5 C 375 83.90625 291.09375 0 187.5 0 Z M 187.5 337.5 C 104.625 337.5 37.5 270.375 37.5 187.5 C 37.5 104.625 104.625 37.5 187.5 37.5 C 270.375 37.5 337.5 104.625 337.5 187.5 C 337.5 270.375 270.375 337.5 187.5 337.5 Z M 187.5 337.5 " fill-opacity="1" fill-rule="nonzero"></path><g fill="#deeefb" fill-opacity="1"><g transform="translate(77.128747, 335.598451)"><g><path d="M 126.292969 -131.476562 L 82.589844 -131.476562 L 82.589844 -113.699219 L 177.03125 0 L 225.546875 0 L 143.699219 -97.402344 C 188.140625 -105.179688 210.734375 -139.996094 210.734375 -176.660156 C 210.734375 -217.769531 182.585938 -262.582031 126.292969 -262.582031 L 31.851562 -262.582031 L 31.851562 0 L 68.886719 0 L 68.886719 -224.808594 L 126.292969 -224.808594 C 157.773438 -224.808594 173.328125 -198.882812 173.328125 -176.660156 C 173.328125 -154.070312 157.773438 -131.476562 126.292969 -131.476562 Z M 126.292969 -131.476562 "></path></g></g></g></svg></svg></g></svg>