<svg xmlns="http://www.w3.org/2000/svg" xmlns:xlink="http://www.w3.org/1999/xlink" width="1200" zoomAndPan="magnify" viewBox="0 0 900 149.999998" height="200" preserveAspectRatio="xMidYMid meet" version="1.0"><defs><g/><clipPath id="6bc7041298"><path d="M 371.902344 7.5 L 487 7.5 L 487 120 L 371.902344 120 Z M 371.902344 7.5 " clip-rule="nonzero"/></clipPath><clipPath id="c01bf1c2af"><path d="M 392 7.5 L 506.902344 7.5 L 506.902344 142.5 L 392 142.5 Z M 392 7.5 " clip-rule="nonzero"/></clipPath></defs><g clip-path="url(#6bc7041298)"><path fill="#9e8638" d="M 435.984375 11.109375 L 435.984375 75.074219 L 435.992188 75.074219 C 436.074219 88.425781 444.367188 100.070312 460.886719 100.070312 C 467.847656 100.070312 473.617188 97.886719 477.625 94.371094 L 483.816406 100.28125 L 486.203125 97.820312 L 479.945312 91.773438 C 483.746094 87.128906 485.710938 80.941406 485.710938 74.960938 C 485.78125 61.527344 477.484375 49.710938 460.886719 49.710938 C 453.296875 49.710938 447.445312 52.214844 443.324219 56.191406 L 443.324219 62.222656 C 446.992188 56.769531 453.207031 53.300781 460.886719 53.300781 C 474.953125 53.300781 481.984375 63.359375 481.984375 74.964844 C 481.984375 86.285156 474.953125 96.484375 460.886719 96.484375 C 446.828125 96.484375 439.796875 86.527344 439.71875 75.074219 L 439.65625 75.074219 L 439.65625 11.023438 C 439.664062 11.023438 439.675781 11.023438 439.6875 11.023438 L 439.6875 7.507812 C 439.59375 7.507812 439.496094 7.5 439.402344 7.5 C 402.183594 7.5 371.902344 37.78125 371.902344 74.996094 C 371.902344 92.234375 378.40625 107.976562 389.078125 119.917969 L 389.078125 114.4375 C 380.535156 103.558594 375.421875 89.867188 375.421875 74.996094 C 375.421875 40.863281 402.289062 12.890625 435.984375 11.109375 Z M 435.984375 11.109375 " fill-opacity="1" fill-rule="nonzero"/></g><g clip-path="url(#c01bf1c2af)"><path fill="#9e8638" d="M 443.203125 7.613281 L 443.203125 11.136719 C 476.71875 13.113281 503.382812 40.992188 503.382812 74.996094 C 503.382812 110.273438 474.679688 138.976562 439.402344 138.976562 C 422.851562 138.976562 407.761719 132.648438 396.394531 122.300781 L 396.394531 53.863281 L 414.257812 53.863281 C 422.414062 53.863281 426.355469 59.839844 426.285156 65.609375 C 426.214844 72.5 422.414062 77.355469 413.835938 77.355469 L 406.566406 77.355469 L 409.816406 80.941406 L 409.824219 80.941406 L 426.847656 99.578125 L 431.839844 99.578125 L 414.46875 80.730469 C 425.230469 80.730469 430.507812 73.695312 430.4375 65.679688 C 430.367188 58.011719 424.949219 50.34375 414.257812 50.34375 C 407.015625 50.34375 399.839844 50.34375 392.597656 50.34375 L 392.597656 123.5625 C 404.742188 135.273438 421.238281 142.496094 439.402344 142.496094 C 476.621094 142.496094 506.902344 112.21875 506.902344 75 C 506.898438 39.054688 478.660156 9.59375 443.203125 7.613281 Z M 443.203125 7.613281 " fill-opacity="1" fill-rule="nonzero"/></g><g fill="#ffffff" fill-opacity="1"><g transform="translate(21.393603, 95.249996)"><g><path d="M 27.328125 -14.449219 C 34.457031 -16.34375 40.078125 -20.855469 40.078125 -29.683594 C 40.078125 -41.910156 29.292969 -45.046875 18.699219 -45.046875 L 3.269531 -45.046875 L 3.269531 0 L 7.585938 0 L 7.585938 -13.46875 L 18.699219 -13.46875 C 20.074219 -13.46875 21.511719 -13.535156 22.882812 -13.664062 L 33.476562 0 L 38.96875 0 Z M 7.585938 -17.261719 L 7.585938 -41.191406 L 18.4375 -41.191406 C 27.589844 -41.191406 35.566406 -39.097656 35.566406 -29.683594 C 35.566406 -19.679688 27.589844 -17.261719 18.4375 -17.261719 Z M 7.585938 -17.261719 "/></g></g></g><g fill="#ffffff" fill-opacity="1"><g transform="translate(85.376949, 95.249996)"><g><path d="M 7.585938 -41.191406 L 36.550781 -41.191406 L 36.875 -45.046875 L 3.269531 -45.046875 L 3.269531 0 L 36.484375 0 L 36.808594 -3.792969 L 7.585938 -3.792969 L 7.585938 -21.378906 L 28.113281 -21.378906 L 28.441406 -25.171875 L 7.585938 -25.171875 Z M 7.585938 -41.191406 "/></g></g></g><g fill="#ffffff" fill-opacity="1"><g transform="translate(146.091223, 95.249996)"><g><path d="M 26.285156 -3.597656 C 14.382812 -3.597656 6.210938 -9.089844 6.210938 -22.492188 C 6.210938 -35.894531 14.382812 -41.320312 26.285156 -41.320312 C 30.925781 -41.320312 37.136719 -40.210938 40.015625 -39.359375 L 40.863281 -43.21875 C 36.808594 -44.527344 32.234375 -45.246094 26.285156 -45.246094 C 12.292969 -45.246094 1.632812 -38.050781 1.632812 -22.492188 C 1.632812 -6.863281 12.292969 0.261719 26.285156 0.261719 C 33.867188 0.261719 39.097656 -1.371094 45.046875 -3.859375 L 45.046875 -23.339844 L 40.734375 -23.339844 L 40.734375 -6.277344 C 37.136719 -5.101562 31.644531 -3.597656 26.285156 -3.597656 Z M 26.285156 -3.597656 "/></g></g></g><g fill="#ffffff" fill-opacity="1"><g transform="translate(216.678091, 95.249996)"><g><path d="M 26.285156 -3.597656 C 14.382812 -3.597656 6.210938 -9.089844 6.210938 -22.492188 C 6.210938 -35.894531 14.382812 -41.320312 26.285156 -41.320312 C 30.925781 -41.320312 37.136719 -40.210938 40.015625 -39.359375 L 40.863281 -43.21875 C 36.808594 -44.527344 32.234375 -45.246094 26.285156 -45.246094 C 12.292969 -45.246094 1.632812 -38.050781 1.632812 -22.492188 C 1.632812 -6.863281 12.292969 0.261719 26.285156 0.261719 C 33.867188 0.261719 39.097656 -1.371094 45.046875 -3.859375 L 45.046875 -23.339844 L 40.734375 -23.339844 L 40.734375 -6.277344 C 37.136719 -5.101562 31.644531 -3.597656 26.285156 -3.597656 Z M 26.285156 -3.597656 "/></g></g></g><g fill="#ffffff" fill-opacity="1"><g transform="translate(287.26497, 95.249996)"><g><path d="M 7.585938 -45.046875 L 3.335938 -45.046875 L 3.335938 0 L 7.585938 0 Z M 7.585938 -45.046875 "/></g></g></g><g fill="#ffffff" fill-opacity="1"><g transform="translate(320.453613, 95.249996)"><g><path d="M 7.585938 -41.191406 L 36.550781 -41.191406 L 36.875 -45.046875 L 3.269531 -45.046875 L 3.269531 0 L 36.484375 0 L 36.808594 -3.792969 L 7.585938 -3.792969 L 7.585938 -21.378906 L 28.113281 -21.378906 L 28.441406 -25.171875 L 7.585938 -25.171875 Z M 7.585938 -41.191406 "/></g></g></g><g fill="#ffffff" fill-opacity="1"><g transform="translate(519.739249, 95.249996)"><g><path d="M 20.59375 0 C 30.273438 0 40.339844 -2.289062 40.339844 -13.140625 C 40.339844 -19.289062 36.417969 -22.492188 31.121094 -23.996094 C 35.632812 -25.171875 39.035156 -27.789062 39.035156 -33.410156 C 39.035156 -43.480469 28.636719 -45.046875 20.136719 -45.046875 L 3.269531 -45.046875 L 3.269531 0 Z M 7.585938 -25.957031 L 7.585938 -41.191406 L 20.136719 -41.191406 C 28.964844 -41.191406 34.457031 -39.230469 34.457031 -33.410156 C 34.457031 -27.589844 28.964844 -25.957031 20.136719 -25.957031 Z M 7.585938 -3.792969 L 7.585938 -22.164062 L 20.59375 -22.164062 C 30.597656 -22.164062 35.765625 -18.960938 35.765625 -13.140625 C 35.765625 -6.734375 30.597656 -3.792969 20.59375 -3.792969 Z M 7.585938 -3.792969 "/></g></g></g><g fill="#ffffff" fill-opacity="1"><g transform="translate(583.984116, 95.249996)"><g><path d="M 40.667969 0 L 22.820312 -44.722656 L 17.71875 -44.460938 L 0 0 L 4.445312 0 L 8.761719 -11.050781 L 31.839844 -11.050781 L 36.222656 0 Z M 20.269531 -40.144531 L 30.335938 -14.84375 L 10.265625 -14.84375 Z M 20.269531 -40.144531 "/></g></g></g><g fill="#ffffff" fill-opacity="1"><g transform="translate(646.921359, 95.249996)"><g><path d="M 27.328125 -14.449219 C 34.457031 -16.34375 40.078125 -20.855469 40.078125 -29.683594 C 40.078125 -41.910156 29.292969 -45.046875 18.699219 -45.046875 L 3.269531 -45.046875 L 3.269531 0 L 7.585938 0 L 7.585938 -13.46875 L 18.699219 -13.46875 C 20.074219 -13.46875 21.511719 -13.535156 22.882812 -13.664062 L 33.476562 0 L 38.96875 0 Z M 7.585938 -17.261719 L 7.585938 -41.191406 L 18.4375 -41.191406 C 27.589844 -41.191406 35.566406 -39.097656 35.566406 -29.683594 C 35.566406 -19.679688 27.589844 -17.261719 18.4375 -17.261719 Z M 7.585938 -17.261719 "/></g></g></g><g fill="#ffffff" fill-opacity="1"><g transform="translate(710.904712, 95.249996)"><g><path d="M 38.445312 -45.046875 L 34.128906 -45.046875 L 34.324219 -5.230469 L 8.761719 -45.046875 L 3.269531 -45.046875 L 3.269531 0 L 7.585938 0 L 7.324219 -39.359375 L 32.691406 0 L 38.445312 0 Z M 38.445312 -45.046875 "/></g></g></g><g fill="#ffffff" fill-opacity="1"><g transform="translate(774.888053, 95.249996)"><g><path d="M 7.585938 -41.191406 L 36.550781 -41.191406 L 36.875 -45.046875 L 3.269531 -45.046875 L 3.269531 0 L 36.484375 0 L 36.808594 -3.792969 L 7.585938 -3.792969 L 7.585938 -21.378906 L 28.113281 -21.378906 L 28.441406 -25.171875 L 7.585938 -25.171875 Z M 7.585938 -41.191406 "/></g></g></g><g fill="#ffffff" fill-opacity="1"><g transform="translate(835.602321, 95.249996)"><g><path d="M 42.171875 -13.207031 C 42.171875 -23.339844 31.839844 -24.582031 22.6875 -25.171875 C 14.90625 -25.695312 6.277344 -25.761719 6.277344 -32.820312 C 6.277344 -39.882812 14.058594 -41.320312 21.378906 -41.320312 C 26.023438 -41.320312 33.410156 -40.144531 36.289062 -39.492188 L 37.070312 -43.347656 C 33.28125 -44.199219 27.328125 -45.246094 21.378906 -45.246094 C 11.964844 -45.246094 1.632812 -42.957031 1.632812 -32.496094 C 1.632812 -22.492188 12.75 -21.445312 22.164062 -20.855469 C 30.730469 -20.335938 37.59375 -18.960938 37.59375 -13.207031 C 37.59375 -4.773438 27.851562 -3.597656 19.941406 -3.597656 C 13.796875 -3.597656 6.605469 -5.035156 2.941406 -6.144531 L 1.832031 -2.355469 C 7.324219 -0.652344 12.75 0.261719 20.335938 0.261719 C 30.796875 0.261719 42.171875 -2.15625 42.171875 -13.207031 Z M 42.171875 -13.207031 "/></g></g></g></svg>